<svg xmlns="http://www.w3.org/2000/svg" viewBox="0 0 1080 1080"><defs><style>.cls-1{fill:#fff;}</style></defs><g id="Logo_-_White" data-name="Logo - White"><path class="cls-1" d="M381.18,0V317.65H698.82V0ZM488.67,266.32a39.74,39.74,0,1,1,11.62-28.08A39.64,39.64,0,0,1,488.67,266.32Zm0-158.83a39.74,39.74,0,1,1,11.62-28.08A39.61,39.61,0,0,1,488.67,107.49ZM647.49,266.32a39.71,39.71,0,1,1,11.63-28.08A39.64,39.64,0,0,1,647.49,266.32Zm0-158.83a39.71,39.71,0,1,1,11.63-28.08A39.61,39.61,0,0,1,647.49,107.49Z"/><rect class="cls-1" x="381.18" y="381.18" width="317.65" height="317.65"/><path class="cls-1" d="M1016.47,444.71V635.29H825.88V444.71h190.59M1080,381.18H762.35V698.82H1080V381.18Z"/><rect class="cls-1" x="762.35" y="762.35" width="317.65" height="317.65" rx="14.71"/><rect class="cls-1" y="381.18" width="317.65" height="63.53"/><rect class="cls-1" y="508.24" width="317.65" height="63.53"/><rect class="cls-1" y="635.29" width="317.65" height="63.53"/><rect class="cls-1" x="762.35" width="127.06" height="127.06"/><rect class="cls-1" x="952.94" width="127.06" height="127.06"/><rect class="cls-1" x="952.94" y="190.59" width="127.06" height="127.06"/><rect class="cls-1" x="762.35" y="190.59" width="127.06" height="127.06"/><path class="cls-1" d="M381.17,762.34V1080H698.82V762.34ZM540,1000.58a79.42,79.42,0,1,1,79.41-79.41A79.4,79.4,0,0,1,540,1000.58Z"/><rect class="cls-1" y="762.35" width="79.41" height="79.41" rx="3.68"/><rect class="cls-1" x="119.12" y="762.35" width="79.41" height="79.41" rx="3.68"/><rect class="cls-1" x="119.12" y="881.47" width="79.41" height="79.41" rx="3.68"/><rect class="cls-1" x="119.12" y="1000.59" width="79.41" height="79.41" rx="3.68"/><rect class="cls-1" y="1000.59" width="79.41" height="79.41" rx="3.68"/><rect class="cls-1" y="881.47" width="79.41" height="79.41" rx="3.68"/><rect class="cls-1" x="238.24" y="762.35" width="79.41" height="79.41" rx="3.68"/><rect class="cls-1" x="238.24" y="881.47" width="79.41" height="79.41" rx="3.68"/><rect class="cls-1" x="238.24" y="1000.59" width="79.41" height="79.41" rx="3.68"/><rect class="cls-1" x="39.71" y="39.71" width="79.41" height="79.41" transform="translate(79.41 -32.89) rotate(45)"/><rect class="cls-1" x="198.53" y="39.71" width="79.41" height="79.41" transform="translate(125.93 -145.2) rotate(45)"/><rect class="cls-1" x="198.53" y="198.53" width="79.41" height="79.41" transform="translate(238.24 -98.68) rotate(45)"/><rect class="cls-1" x="39.71" y="198.53" width="79.41" height="79.41" transform="translate(191.72 13.62) rotate(45)"/></g></svg>